<svg xmlns="http://www.w3.org/2000/svg" xmlns:xlink="http://www.w3.org/1999/xlink" viewBox="0 0 952 212.36"><defs><style>.cls-1{isolation:isolate;}.cls-2{mix-blend-mode:darken;fill:url(#linear-gradient);}.cls-3,.cls-4,.cls-5,.cls-6,.cls-7,.cls-8,.cls-9{mix-blend-mode:multiply;}.cls-3{fill:url(#linear-gradient-2);}.cls-4{fill:url(#linear-gradient-3);}.cls-5{fill:url(#linear-gradient-4);}.cls-6{fill:url(#linear-gradient-5);}.cls-7{fill:url(#linear-gradient-6);}.cls-8{fill:url(#linear-gradient-7);}.cls-9{fill:url(#linear-gradient-8);}.cls-10{fill:#f9ed32;}.cls-11{fill:none;}.cls-12{fill:#3a3a3c;}</style><linearGradient id="linear-gradient" x1="80.44" y1="64.66" x2="122.59" y2="-8.35" gradientUnits="userSpaceOnUse"><stop offset="0" stop-color="#fbb041"/><stop offset="0.92" stop-color="#ffda15"/><stop offset="1" stop-color="#ffde11"/></linearGradient><linearGradient id="linear-gradient-2" x1="5.49" y1="49.71" x2="90.39" y2="49.71" gradientUnits="userSpaceOnUse"><stop offset="0" stop-color="#d48c3d"/><stop offset="0.18" stop-color="#d79737"/><stop offset="0.69" stop-color="#ddb02a"/><stop offset="1" stop-color="#dfba25"/></linearGradient><linearGradient id="linear-gradient-3" y1="106.6" x2="71.98" y2="106.6" gradientUnits="userSpaceOnUse"><stop offset="0" stop-color="#73784b"/><stop offset="0.08" stop-color="#777b4a"/><stop offset="1" stop-color="#a3993f"/></linearGradient><linearGradient id="linear-gradient-4" x1="6.89" y1="163.3" x2="93.38" y2="163.3" gradientUnits="userSpaceOnUse"><stop offset="0" stop-color="#3db54a"/><stop offset="0.04" stop-color="#41b64a"/><stop offset="0.46" stop-color="#6bbf45"/><stop offset="0.8" stop-color="#84c442"/><stop offset="1" stop-color="#8ec641"/></linearGradient><linearGradient id="linear-gradient-5" x1="120.82" y1="50.11" x2="205.75" y2="50.11" gradientUnits="userSpaceOnUse"><stop offset="0" stop-color="#673090"/><stop offset="0.25" stop-color="#8c2b80"/><stop offset="0.58" stop-color="#b6246d"/><stop offset="0.84" stop-color="#cf2061"/><stop offset="1" stop-color="#d91f5d"/></linearGradient><linearGradient id="linear-gradient-6" x1="142.91" y1="104.99" x2="211.75" y2="104.99" gradientUnits="userSpaceOnUse"><stop offset="0" stop-color="#ec76ae"/><stop offset="0.09" stop-color="#eb6ca6"/><stop offset="0.49" stop-color="#e64284"/><stop offset="0.81" stop-color="#e3296f"/><stop offset="1" stop-color="#e21f67"/></linearGradient><linearGradient id="linear-gradient-7" x1="118.86" y1="163.21" x2="205.37" y2="163.21" gradientUnits="userSpaceOnUse"><stop offset="0" stop-color="#29aae1"/><stop offset="0.33" stop-color="#2973ac"/><stop offset="0.63" stop-color="#284883"/><stop offset="0.86" stop-color="#282f6a"/><stop offset="1" stop-color="#282561"/></linearGradient><linearGradient id="linear-gradient-8" x1="60.51" y1="176.42" x2="151.52" y2="176.42" gradientUnits="userSpaceOnUse"><stop offset="0" stop-color="#29aae1"/><stop offset="0.23" stop-color="#2aaec1"/><stop offset="0.57" stop-color="#2cb297"/><stop offset="0.84" stop-color="#2db57e"/><stop offset="1" stop-color="#2db674"/></linearGradient></defs><title>Logo</title><g class="cls-1"><g id="Layer_2" data-name="Layer 2"><g id="Layer_1-2" data-name="Layer 1"><path class="cls-2" d="M150.56,18c0,20.93-16.33,39.63-29.44,51.27,0,0,0,0-.05,0v0A24.29,24.29,0,0,0,109,78.93c-.23.18-.46.36-.66.49A24.19,24.19,0,0,0,90.2,67.93a29.7,29.7,0,0,0-3.44-.21c-.33,0-.64,0-1,0-12.3-10.88-26-27.82-26.24-49.2a17.62,17.62,0,0,1,4.6-12A19,19,0,0,1,77.92,0c11.24,0,27.33,11,27.33,11S118.82.38,132.41.38A18.85,18.85,0,0,1,146.91,7,17,17,0,0,1,150.56,18Z"/><path class="cls-3" d="M90.2,67.93a29.7,29.7,0,0,0-3.44-.21c-.33,0-.64,0-1,0-8,.43-18.52,6-22.8,16.2a24.84,24.84,0,0,0-1.9,9c-16,.51-36-2.35-50.31-16.39A17.63,17.63,0,0,1,5.64,66a19,19,0,0,1,5-15.54c8-7.94,27.08-11.59,27.08-11.59s2.13-17.08,11.72-26.67a19,19,0,0,1,14.7-5.62,16.81,16.81,0,0,1,10.56,5.19C89.26,26.27,91.11,50.49,90.2,67.93Z"/><path class="cls-4" d="M72,120.82a4.73,4.73,0,0,1-.36.45c-10.55,13.22-29,30.6-53.07,30.83a17.59,17.59,0,0,1-11.64-4.25A19.06,19.06,0,0,1,0,133.75c0-11.23,11-27.36,11-27.36S.41,92.83.41,79.26A19.37,19.37,0,0,1,5.64,66,16.71,16.71,0,0,1,18,61.09c17.51,0,33.46,11.44,45,22.86a24.84,24.84,0,0,0-1.9,9c0,.28,0,.56,0,.84C61.07,104.55,65.17,113,72,120.82Z"/><path class="cls-5" d="M76.94,200.46a17.83,17.83,0,0,1-12.45,5.27,18.87,18.87,0,0,1-13.67-5.14c-8-8-11.57-27.08-11.57-27.08s-17.08-2.13-26.67-11.72a19.06,19.06,0,0,1-5.67-13.94,16.64,16.64,0,0,1,5.24-11.34c15.49-15.46,41.91-16.58,59.47-15.24l.84.08A121.25,121.25,0,0,0,86.1,134.23c2.33,1.93,4.45,3.87,6.42,5.8a6.32,6.32,0,0,1,.11.76C94.55,157.59,93.89,183.13,76.94,200.46Z"/><path class="cls-6" d="M205.75,64a17.91,17.91,0,0,1-5.31,12.94C187.76,89.36,170.68,93,155.85,93.33a24.48,24.48,0,0,0-4.26-13.71c-5.34-7.82-14.55-11.9-21.41-11.9a26.44,26.44,0,0,0-9.06,1.52s0,0-.05,0v0c-1-17.51.63-42.29,15.44-57.09A17,17,0,0,1,146.91,7a19,19,0,0,1,14.86,5.62c9.61,9.59,11.71,26.67,11.71,26.67s19.16,3.62,27.11,11.57A18.91,18.91,0,0,1,205.75,64Z"/><path class="cls-7" d="M142.91,123.07c10.86,12.58,28.2,27.18,50.29,27.44a17.64,17.64,0,0,0,12-4.59,18.93,18.93,0,0,0,6.58-13.79c0-11.23-11-27.33-11-27.33s10.57-13.59,10.57-27.16A19.18,19.18,0,0,0,205.75,64a16.62,16.62,0,0,0-12-4.53c-16.12,0-30.93,9.7-42.19,20.15a24.48,24.48,0,0,1,4.26,13.71,2.82,2.82,0,0,1,0,.41c0,10.86-4.15,19.26-11,27.18Z"/><path class="cls-8" d="M144.86,120.92c17.34-.83,40.95,1.22,55.25,15.51a17.15,17.15,0,0,1,5.06,9.49c1,6.13-1.8,12.08-5.49,15.77-9.59,9.59-26.68,11.72-26.68,11.72s-3.62,19.16-11.59,27.1a18.93,18.93,0,0,1-14.3,5.12,17.69,17.69,0,0,1-11.79-5.27c-15.46-15.77-17.39-38.36-16.15-54.94,1-1.09,2.06-2.23,3.19-3.37a114.39,114.39,0,0,1,8.48-7.82,134.53,134.53,0,0,0,12.07-11.16Z"/><path class="cls-9" d="M151.52,193.78a17.73,17.73,0,0,1-4.41,11.85,19,19,0,0,1-13.94,6.73c-11.26,0-27.36-11-27.36-11S92.25,212,78.68,212a18.89,18.89,0,0,1-14.19-6.22,16.74,16.74,0,0,1-4-11.34c0-22.4,18.7-42.24,32.12-53.6a3.68,3.68,0,0,1,.38-.31,103.46,103.46,0,0,1,15.46,18.76,95.45,95.45,0,0,1,10.7-13.82c1-1.09,2.06-2.23,3.19-3.37C135.32,152.78,151.29,170.7,151.52,193.78Z"/><path class="cls-10" d="M121.12,69.24s0,0-.05,0v0S121.1,69.22,121.12,69.24Z"/><path class="cls-11" d="M144.86,120.92c-.61.71-1.26,1.44-2,2.15"/><path class="cls-12" d="M272.57,64.73a27.46,27.46,0,0,1-.95,5.88c-.64,2.6-1.43,5.6-2.39,9s-2,7.09-3.12,11.07S264,98.7,263,102.8s-1.76,8.13-2.39,12.09a70.79,70.79,0,0,0-.95,11,51.2,51.2,0,0,0,.55,7.77,25,25,0,0,0,1.7,6.26,11.48,11.48,0,0,0,2.88,4.19,6,6,0,0,0,4.09,1.52,8.49,8.49,0,0,0,4.58-1.4,18.85,18.85,0,0,0,4.3-3.87,38.07,38.07,0,0,0,4-5.86q1.9-3.4,3.66-7.36c1.18-2.64,2.28-5.41,3.32-8.32s2-5.86,2.94-8.82a326.41,326.41,0,0,0,8.59-35.7A28.42,28.42,0,0,1,301.91,69a10.8,10.8,0,0,1,2.29-3.46,7.49,7.49,0,0,1,3.11-1.82,14.44,14.44,0,0,1,4.09-.53,13.46,13.46,0,0,1,3.62.41,6.08,6.08,0,0,1,2.24,1.09,3.75,3.75,0,0,1,1.18,1.67,6.37,6.37,0,0,1,.35,2.19c0,.27-.15,1.4-.46,3.37s-.7,4.52-1.18,7.61-1,6.6-1.56,10.52-1.08,7.94-1.56,12.07-.87,8.22-1.18,12.25-.46,7.74-.46,11.12.13,6.58.37,9.37a36.91,36.91,0,0,0,1.27,7.12,11.51,11.51,0,0,0,2.32,4.49,4.64,4.64,0,0,0,3.56,1.56,9.44,9.44,0,0,0,6.68-2.88,28.93,28.93,0,0,0,5.51-7.7,67.86,67.86,0,0,0,4.48-11.15,151.37,151.37,0,0,0,3.9-16.54c1.28-6.8,1.93-10.2,1.92-10.19l1.35-11.11q1.33-11.11,1.84-15.24t.78-6.46a8.76,8.76,0,0,1,1.16-4.09,6.83,6.83,0,0,1,2.47-2.4,9.51,9.51,0,0,1,3.42-1.12,26.46,26.46,0,0,1,3.91-.28,13.24,13.24,0,0,1,2.86.29,5.93,5.93,0,0,1,2.22,1A4.49,4.49,0,0,1,363.85,62a7.92,7.92,0,0,1,.5,3,71.21,71.21,0,0,1-1,11.27q-1,6.15-2.47,12.34A69.46,69.46,0,0,0,359,100.83a40.23,40.23,0,0,1-2.4,11.52,67.71,67.71,0,0,0-2.8,9.1,29.93,29.93,0,0,0-.74,4.67,15.41,15.41,0,0,0,.64,4.71,9.53,9.53,0,0,0,1.7,3.22,6.15,6.15,0,0,0,2.53,1.84,8.89,8.89,0,0,0,3.15.56,8.47,8.47,0,0,0,3.43-.78,13.35,13.35,0,0,0,3.37-2.16,17.66,17.66,0,0,0,3-3.31,19.92,19.92,0,0,0,2.28-4.29l1,11.83a38.87,38.87,0,0,1-8.79,7.16,17.15,17.15,0,0,1-8.5,2.62,11.22,11.22,0,0,1-3.57-.56,8.42,8.42,0,0,1-3-1.74,9.39,9.39,0,0,1-2.16-3.05,15.6,15.6,0,0,1-1.2-4.43,63.48,63.48,0,0,1-6.17,8.83,42.28,42.28,0,0,1-7,6.7,30.66,30.66,0,0,1-7.75,4.27,23.84,23.84,0,0,1-8.35,1.5,15,15,0,0,1-9.28-2.88,21,21,0,0,1-6.2-7.83,42.84,42.84,0,0,1-3.47-11.65,88,88,0,0,1-1.09-14.23,44.42,44.42,0,0,1,.28-5.19c.2-1.61.35-3.05.47-4.32a124.07,124.07,0,0,1-5.22,22,49.39,49.39,0,0,1-7.38,14.21,24.37,24.37,0,0,1-9.68,7.64A30.94,30.94,0,0,1,264,159a12.16,12.16,0,0,1-7.26-2.5,21.11,21.11,0,0,1-6.08-7.47,48,48,0,0,1-4.21-12.42,84.36,84.36,0,0,1-1.59-17.43,115.11,115.11,0,0,1,.7-12.54q.69-6.42,2-12.88T250.78,81q1.91-6.35,4.32-12.33A25.26,25.26,0,0,1,258,63.46a10.9,10.9,0,0,1,2.94-2.77,7.51,7.51,0,0,1,3-1.06,26.42,26.42,0,0,1,3.09-.18,13.5,13.5,0,0,1,2.3.18,3.94,3.94,0,0,1,1.76.73,3.42,3.42,0,0,1,1.09,1.58A8.4,8.4,0,0,1,272.57,64.73Z"/><path class="cls-12" d="M386.13,153.51a21,21,0,0,1-9.41-2,19.54,19.54,0,0,1-6.73-5.37,23.33,23.33,0,0,1-4-7.8,31.74,31.74,0,0,1-1.34-9.3,29.54,29.54,0,0,1,1.2-7.59c.8-2.94,1.64-5.55,2.5-7.83a35.87,35.87,0,0,1,3.23-6.51,26,26,0,0,1,4.56-5.46A21.17,21.17,0,0,1,382,97.91a18,18,0,0,1,7.19-1.4,17,17,0,0,1,6,1,14.56,14.56,0,0,1,4.82,2.91,13,13,0,0,1,3.2,4.51,14.73,14.73,0,0,1,1.16,5.93,16.87,16.87,0,0,1-2.34,7.84,31.27,31.27,0,0,1-5.46,7.43,34.4,34.4,0,0,1-7.42,5.53,40.42,40.42,0,0,1-9.33,3.77,18,18,0,0,0,1.71,2.54,7.32,7.32,0,0,0,1.71,1.58,5.8,5.8,0,0,0,1.81.79,9,9,0,0,0,2.06.22,22,22,0,0,0,7.29-1.35,48.32,48.32,0,0,0,7.46-3.38,62.42,62.42,0,0,0,6.86-4.43,57.76,57.76,0,0,0,5.48-4.53l7.43,7.55A75.81,75.81,0,0,1,410.8,144c-1.65,1.19-3.42,2.36-5.33,3.51a48.8,48.8,0,0,1-6,3,40.33,40.33,0,0,1-6.51,2.14A29.74,29.74,0,0,1,386.13,153.51Zm-7.69-27.45a11.79,11.79,0,0,0,4.54-1,20.75,20.75,0,0,0,4.57-2.68,21.76,21.76,0,0,0,4.14-4.39c1.35-1.84,2-3.37,2-4.57a8.25,8.25,0,0,0-.95-4.17,2.75,2.75,0,0,0-2.35-1.63,8.86,8.86,0,0,0-7.2,3.24,12.32,12.32,0,0,0-1.91,3.27q-.72,1.83-1.67,4.53a17.64,17.64,0,0,0-1.08,4.46C378.48,124.24,378.44,125.24,378.44,126.06Z"/><path class="cls-12" d="M423.05,153.51a8,8,0,0,1-5.77-2.69,23.55,23.55,0,0,1-4.65-7.24,48.3,48.3,0,0,1-3.1-10.52,67.93,67.93,0,0,1-1.12-12.56,91.5,91.5,0,0,1,1.66-15.1q1.67-9.45,1.66-9.45l2.52-9.43a105.57,105.57,0,0,1,5.05-15.13,99.14,99.14,0,0,1,5.5-10.64A58,58,0,0,1,431,52.12a28.72,28.72,0,0,1,6.81-5.78,14,14,0,0,1,7.22-2.1,8.55,8.55,0,0,1,4.4,1A7.6,7.6,0,0,1,452.2,48a11.65,11.65,0,0,1,1.39,3.79A22.71,22.71,0,0,1,454,56a49.68,49.68,0,0,1-1.29,11.1,83.82,83.82,0,0,1-3.48,11.36Q447,84.22,444.17,90t-6,11.38q-3.12,5.65-6.27,11.13t-5.8,10.71a13,13,0,0,0-.61,1.51c-.21.62-.41,1.29-.61,2s-.38,1.48-.57,2.29-.35,1.61-.47,2.38v.82a13.49,13.49,0,0,0,.32,2.93,15.81,15.81,0,0,0,.78,2.56,7.77,7.77,0,0,0,1,1.8c.35.45.68.67,1,.67a8.53,8.53,0,0,0,2.57-.46,25.15,25.15,0,0,0,3.07-1.25c1.08-.53,2.19-1.13,3.33-1.81s2.24-1.36,3.3-2.06c2.48-1.63,5.08-3.5,7.79-5.64l5.09,12.15q-5.28,3.51-10.44,6.25-2.26,1.14-4.66,2.27t-4.84,2a39.4,39.4,0,0,1-4.75,1.4A19.62,19.62,0,0,1,423.05,153.51Zm.05-45.68q2.61-4.65,5.53-10.47t5.52-12q2.6-6.15,4.51-12.29a58,58,0,0,0,2.43-11.42q0-1.68-.09-2.88c-.05-.79-.22-1.19-.52-1.19-1.05,0-2.19.73-3.41,2.19a29.47,29.47,0,0,0-3.66,5.93A89.11,89.11,0,0,0,429,77.88L426.5,86.3S426,88.9,425,94.11A97.44,97.44,0,0,0,423.1,107.83Z"/><path class="cls-12" d="M454.06,153.51a8.07,8.07,0,0,1-5.78-2.69,23.55,23.55,0,0,1-4.65-7.24,48.86,48.86,0,0,1-3.1-10.52,68.8,68.8,0,0,1-1.12-12.56,91.7,91.7,0,0,1,1.67-15.1c1.1-6.3,1.66-9.45,1.66-9.45l2.52-9.43a104.33,104.33,0,0,1,5.05-15.13,97.35,97.35,0,0,1,5.5-10.64A56.59,56.59,0,0,1,462,52.12a28.72,28.72,0,0,1,6.81-5.78,14,14,0,0,1,7.21-2.1,8.62,8.62,0,0,1,4.41,1A7.49,7.49,0,0,1,483.2,48a11.66,11.66,0,0,1,1.4,3.79A22.71,22.71,0,0,1,485,56a49.68,49.68,0,0,1-1.29,11.1,83.75,83.75,0,0,1-3.47,11.36q-2.19,5.72-5.07,11.45t-6,11.38q-3.1,5.65-6.26,11.13t-5.81,10.71a13.14,13.14,0,0,0-.6,1.51c-.21.62-.42,1.29-.61,2s-.38,1.48-.58,2.29-.34,1.61-.46,2.38v.82a13.49,13.49,0,0,0,.32,2.93,15.81,15.81,0,0,0,.78,2.56,7.41,7.41,0,0,0,1,1.8c.35.45.68.67,1,.67a8.48,8.48,0,0,0,2.57-.46,24.52,24.52,0,0,0,3.07-1.25c1.08-.53,2.19-1.13,3.33-1.81s2.25-1.36,3.31-2.06c2.48-1.63,5.07-3.5,7.79-5.64l5.09,12.15q-5.29,3.51-10.45,6.25c-1.5.76-3.06,1.52-4.66,2.27s-3.21,1.42-4.84,2a39.26,39.26,0,0,1-4.74,1.4A19.68,19.68,0,0,1,454.06,153.51Zm.05-45.68q2.61-4.65,5.52-10.47t5.52-12a130.56,130.56,0,0,0,4.51-12.29,58,58,0,0,0,2.43-11.42c0-1.12,0-2.08-.08-2.88s-.23-1.19-.52-1.19c-1.06,0-2.19.73-3.41,2.19a29.47,29.47,0,0,0-3.66,5.93,87.75,87.75,0,0,0-4.37,12.15c-1.7,5.61-2.54,8.42-2.54,8.42S457,88.9,456,94.11A96,96,0,0,0,454.11,107.83Z"/><path class="cls-12" d="M472.27,141.47q0-3.81.46-8.79t1.15-11q.69-6,1.56-10.75t1.67-8.19a9,9,0,0,1,2.45-4.43,6.71,6.71,0,0,1,4.93-1.79q3.11,0,4.32,1.9a9.41,9.41,0,0,1,1.21,5.07,20.3,20.3,0,0,1-.18,2.34c-.11,1-.26,2.05-.43,3.23s-.36,2.38-.55,3.63-.37,2.67-.54,4.26-.32,2.79-.44,3.57a14.8,14.8,0,0,0-.17,1.59h1.15l1.1-2a35.75,35.75,0,0,0,1.73-4.06,34.68,34.68,0,0,1,2.1-4.7q1.13-2,2.1-3.92c.66-1.24,1.25-2.35,1.79-3.31s.94-1.67,1.21-2.13a10.4,10.4,0,0,1,4.21-4.27,11.76,11.76,0,0,1,5.25-1.15A5.35,5.35,0,0,1,512.93,99a11.49,11.49,0,0,1,1.69,6.69,14.51,14.51,0,0,1-.25,2.13c-.18,1-.4,2.19-.67,3.57s-.56,3.17-.89,5.36-.62,4.15-.9,5.88-.49,3.44-.66,5.13S511,131,511,132.42a16.37,16.37,0,0,0,.9,5.88c.59,1.53,1.53,2.3,2.79,2.3a5.58,5.58,0,0,0,2-.52,7.29,7.29,0,0,0,2.42-1.21,17.79,17.79,0,0,1,2.66-1.9,29.32,29.32,0,0,0,3.86-2.31q4.6-2.92,11-7.2l-.06,12.91-2.88,2.19c-.22.19-2,1.19-5.41,3q-7.32,3.91-9.17,4.72a52.66,52.66,0,0,1-5.59,2.31,19.58,19.58,0,0,1-6.05.92q-3.17,0-5.33-4.58t-2.16-13.4a64.78,64.78,0,0,1,.46-7.46q.47-4,1.15-8.62h-.92l-15.1,30a7.57,7.57,0,0,1-2.59,3.23,6.44,6.44,0,0,1-9.37-2.86,13.08,13.08,0,0,1-1-3.86A38.08,38.08,0,0,1,472.27,141.47Z"/><path class="cls-12" d="M547.5,153.51a21,21,0,0,1-9.41-2,19.44,19.44,0,0,1-6.73-5.37,23.15,23.15,0,0,1-4-7.8,32.08,32.08,0,0,1-1.34-9.3,29.54,29.54,0,0,1,1.2-7.59q1.22-4.41,2.5-7.83a35.87,35.87,0,0,1,3.23-6.51,26,26,0,0,1,4.56-5.46,21.17,21.17,0,0,1,5.85-3.75,18,18,0,0,1,7.19-1.4,17,17,0,0,1,6,1,14.56,14.56,0,0,1,4.82,2.91,13.18,13.18,0,0,1,3.2,4.51,14.73,14.73,0,0,1,1.16,5.93,16.87,16.87,0,0,1-2.34,7.84,31.27,31.27,0,0,1-5.46,7.43,34.4,34.4,0,0,1-7.42,5.53,40.42,40.42,0,0,1-9.33,3.77,18,18,0,0,0,1.71,2.54,7.94,7.94,0,0,0,1.7,1.58,5.91,5.91,0,0,0,1.83.79,8.89,8.89,0,0,0,2,.22,21.9,21.9,0,0,0,7.29-1.35,47.9,47.9,0,0,0,7.46-3.38,62.42,62.42,0,0,0,6.86-4.43,57.76,57.76,0,0,0,5.48-4.53l7.43,7.55A76.29,76.29,0,0,1,572.18,144c-1.66,1.19-3.43,2.36-5.34,3.51a48.8,48.8,0,0,1-6,3,40,40,0,0,1-6.51,2.14A29.74,29.74,0,0,1,547.5,153.51Zm-7.69-27.45a11.79,11.79,0,0,0,4.54-1,20.75,20.75,0,0,0,4.57-2.68,21.76,21.76,0,0,0,4.14-4.39c1.35-1.84,2-3.37,2-4.57a8.25,8.25,0,0,0-1-4.17,2.75,2.75,0,0,0-2.34-1.63,8.86,8.86,0,0,0-7.21,3.24,12.32,12.32,0,0,0-1.91,3.27q-.72,1.83-1.67,4.53a17.13,17.13,0,0,0-1.07,4.46C539.85,124.24,539.81,125.24,539.81,126.06Z"/><path class="cls-12" d="M570,131.76c2.16-1.86,3.9-3.42,5.25-4.66a41.9,41.9,0,0,0,4-4.34c1.35-1.65,2.41-3,3.2-4.05l2.8-3.73,3.92-5.27q2.3-3.12,6-7.78a21,21,0,0,1,1.67-2,12.84,12.84,0,0,1,2-1.77,10.79,10.79,0,0,1,2.48-1.29,9,9,0,0,1,3-.49,11.67,11.67,0,0,1,4.27.61,5.2,5.2,0,0,1,2.19,1.49,3.66,3.66,0,0,1,.81,1.83,15.82,15.82,0,0,1,.11,1.66,5.82,5.82,0,0,1-1.09,3.09,32.82,32.82,0,0,1-2.43,3.26c-.88,1-1.72,2-2.5,2.89a6,6,0,0,0-1.36,2,18.48,18.48,0,0,0,.27,3.29,23.72,23.72,0,0,0,.7,2.91c.29,1,.6,2,.91,3s.62,2.3.9,3.7a21,21,0,0,1,.12,5.77c-.21,2.45-.32,4.91-.32,7.4a33.9,33.9,0,0,1,4.47-2.54l5-2.36q2.6-1.22,5.34-2.71a43.18,43.18,0,0,0,5.5-3.58l.06,13.05a53.73,53.73,0,0,1-8.27,5,82.28,82.28,0,0,1-9.88,4.12,78.49,78.49,0,0,1-10.46,2.8,51.86,51.86,0,0,1-10,1,30.91,30.91,0,0,1-6.33-.61,16.69,16.69,0,0,1-5.16-1.9,10.76,10.76,0,0,1-3.61-3.39,11.08,11.08,0,0,1-1.67-5.07,9.71,9.71,0,0,1-1.58.23q-.78.06-1.53.06c-.61,0-1.19,0-1.73-.06a2.75,2.75,0,0,1-1.38-.43,2.5,2.5,0,0,1-.92-1.23,6.56,6.56,0,0,1-.35-2.41,5.11,5.11,0,0,1,.69-2.6,10.34,10.34,0,0,1,1.62-2.12,16.82,16.82,0,0,1,1.84-1.63C569.19,132.4,569.66,132,570,131.76Zm7.2,7.45a2.28,2.28,0,0,1,1.52.88c.56.58,1.2,1.22,1.94,1.92a14.9,14.9,0,0,0,2.53,1.93,6.24,6.24,0,0,0,3.29.87,8,8,0,0,0,3.71-.76,6.21,6.21,0,0,0,2.34-2,7.93,7.93,0,0,0,1.21-2.91,17,17,0,0,0,.34-3.47,25,25,0,0,0-.2-3.2,18.59,18.59,0,0,1,.06-4.05,10.34,10.34,0,0,0-.12-3.73c-.25-.87-.47-1.62-.66-2.24Z"/><path class="cls-12" d="M619.64,131.76c2.16-1.86,3.9-3.42,5.25-4.66a41.9,41.9,0,0,0,4-4.34c1.35-1.65,2.41-3,3.2-4.05l2.8-3.73,3.92-5.27q2.29-3.12,6-7.78a19.62,19.62,0,0,1,1.67-2,12.84,12.84,0,0,1,2-1.77A10.93,10.93,0,0,1,651,96.83a9.08,9.08,0,0,1,3-.49,11.67,11.67,0,0,1,4.27.61,5.2,5.2,0,0,1,2.19,1.49,3.55,3.55,0,0,1,.8,1.83,13.74,13.74,0,0,1,.12,1.66,5.9,5.9,0,0,1-1.09,3.09,32.82,32.82,0,0,1-2.43,3.26c-.88,1-1.72,2-2.5,2.89a6,6,0,0,0-1.36,2,19.51,19.51,0,0,0,.26,3.29,25.73,25.73,0,0,0,.71,2.91c.29,1,.6,2,.91,3s.62,2.3.9,3.7a21,21,0,0,1,.12,5.77c-.21,2.45-.32,4.91-.32,7.4a33.27,33.27,0,0,1,4.47-2.54l5-2.36q2.59-1.22,5.33-2.71a43.26,43.26,0,0,0,5.51-3.58l.06,13.05a53.73,53.73,0,0,1-8.27,5,83,83,0,0,1-9.88,4.12,78.49,78.49,0,0,1-10.46,2.8,51.94,51.94,0,0,1-10,1,31,31,0,0,1-6.34-.61,16.54,16.54,0,0,1-5.15-1.9,10.76,10.76,0,0,1-3.61-3.39,11.08,11.08,0,0,1-1.67-5.07,9.87,9.87,0,0,1-1.58.23q-.78.06-1.53.06c-.61,0-1.19,0-1.73-.06a2.75,2.75,0,0,1-1.38-.43,2.5,2.5,0,0,1-.92-1.23,6.56,6.56,0,0,1-.35-2.41,5.11,5.11,0,0,1,.69-2.6,10.67,10.67,0,0,1,1.61-2.12,17.86,17.86,0,0,1,1.85-1.63C618.87,132.4,619.34,132,619.64,131.76Zm7.2,7.45a2.28,2.28,0,0,1,1.52.88c.56.58,1.2,1.22,1.93,1.92a15,15,0,0,0,2.54,1.93,6.21,6.21,0,0,0,3.28.87,8,8,0,0,0,3.72-.76,6.1,6.1,0,0,0,2.33-2,7.77,7.77,0,0,0,1.22-2.91,17,17,0,0,0,.34-3.47,27,27,0,0,0-.2-3.2,18.59,18.59,0,0,1,.06-4.05,10.34,10.34,0,0,0-.12-3.73c-.25-.87-.47-1.62-.66-2.24Z"/><path class="cls-12" d="M654.56,135.63c.5-.35,1.35-.92,2.54-1.72l4.22-2.83c1.62-1.09,3.37-2.29,5.23-3.59s3.71-2.61,5.52-3.94l.46-4A139.78,139.78,0,0,1,676.63,97a119.12,119.12,0,0,1,6.66-18.54A85.27,85.27,0,0,1,691.65,64a65.79,65.79,0,0,1,9.23-10.39,37.8,37.8,0,0,1,9.28-6.26,20.93,20.93,0,0,1,8.57-2.07,12.91,12.91,0,0,1,5.41,1.12,11.4,11.4,0,0,1,4.23,3.36,16.75,16.75,0,0,1,2.76,5.6,27.52,27.52,0,0,1,1,7.85,43,43,0,0,1-1.63,11.38,67.41,67.41,0,0,1-4.61,12,97,97,0,0,1-7.17,12.11,113.84,113.84,0,0,1-9.26,11.64,114.67,114.67,0,0,1-11,10.59,100.26,100.26,0,0,1-12.22,8.9q0,3.57-.23,8.53-.06,2.1-.09,3.18c0,.72,0,1.21,0,1.48v.65a2.32,2.32,0,0,0,.2,1,1.55,1.55,0,0,0,.81.7,7,7,0,0,0,1.65.41,22.53,22.53,0,0,0,2.78.14c1.7,0,4-.78,7-2.36l19.3-5.54a4.43,4.43,0,0,1,.94-.17c.32,0,.61-.05.89-.05a5.28,5.28,0,0,1,2.53.56,5.2,5.2,0,0,1,1.76,1.5,6.46,6.46,0,0,1,1.06,2.17,9.36,9.36,0,0,1,.35,2.53,7.4,7.4,0,0,1-.35,2.29,7.08,7.08,0,0,1-1.05,2.09,6.69,6.69,0,0,1-1.76,1.67,6.1,6.1,0,0,1-2.45.95q-5.73,1.86-11.69,3.35l-5.37,1.54-5.6,1.6a28.8,28.8,0,0,1-5.83,1c-2,.14-3.94.21-5.81.21a15.16,15.16,0,0,1-7-1.4,11.07,11.07,0,0,1-4.3-3.78,16.74,16.74,0,0,1-2.21-6.89,58.5,58.5,0,0,1-.64-8q-5,3.63-8.44,5.76t-4.45,2.13a3.09,3.09,0,0,1-1.88-.67,7.53,7.53,0,0,1-1.65-1.75,9.35,9.35,0,0,1-1.18-2.44,8.72,8.72,0,0,1-.43-2.68,9,9,0,0,1,.26-2.19A2.81,2.81,0,0,1,654.56,135.63Zm32.73-20.48q3-3.09,6.15-6.74t6.35-7.65q3.15-4,6.07-8.17t5.25-8.32a69.76,69.76,0,0,0,3.93-8,30.46,30.46,0,0,0,2.05-7.41c.11-.78.19-1.53.23-2.25s.06-1.39.06-2a9.92,9.92,0,0,0-.9-4.85A2.73,2.73,0,0,0,714,58.19a7.44,7.44,0,0,0-4.33,2,29.85,29.85,0,0,0-5.2,5.58A70.53,70.53,0,0,0,699,74.47a92.64,92.64,0,0,0-5.13,11.44,112.78,112.78,0,0,0-4.13,13.71A106.48,106.48,0,0,0,687.29,115.15Z"/><path class="cls-12" d="M759.57,141.24a53.66,53.66,0,0,1-5.16,4.06,55.55,55.55,0,0,1-6.66,4,52.15,52.15,0,0,1-7.29,3,22.72,22.72,0,0,1-7.06,1.21,13.49,13.49,0,0,1-5-.83,8.42,8.42,0,0,1-3.31-2.34,8.89,8.89,0,0,1-1.82-3.66,19.06,19.06,0,0,1-.55-4.75,52.1,52.1,0,0,1,.81-8.47q1.66-10,2.13-11.25.79-2.47,3.15-10.91,2.19-6.89,2.7-9a4.73,4.73,0,0,1,1.58-2.62A10.46,10.46,0,0,1,735.74,98a14.17,14.17,0,0,1,3.12-1,14.5,14.5,0,0,1,2.91-.32c1.59,0,2.66.29,3.23.89a3.31,3.31,0,0,1,.85,2.39,15.77,15.77,0,0,1-.59,3.58q-.6,2.33-1.35,5.28c-.51,2-1.25,4.51-2.24,7.62a58,58,0,0,0-2,7.93c-.37,2.19-.82,4.37-1.37,6.53a23.6,23.6,0,0,0-.83,5.89,12.1,12.1,0,0,0,.57,4.12,2.3,2.3,0,0,0,2.37,1.53A9.4,9.4,0,0,0,745,141a40.87,40.87,0,0,0,5.14-3.48c1.72-1.36,3.41-2.78,5.07-4.24s3.11-2.71,4.38-3.74ZM733.8,80.75a9.57,9.57,0,0,1,.58-3,9.67,9.67,0,0,1,1.87-3.17,10.47,10.47,0,0,1,3.46-2.5,12.61,12.61,0,0,1,5.39-1,15,15,0,0,1,3.8.46A9.42,9.42,0,0,1,752,72.93a6.79,6.79,0,0,1,2.1,2.53,8.29,8.29,0,0,1,.78,3.72,11.89,11.89,0,0,1-.63,3.84,9.11,9.11,0,0,1-2,3.32,10.63,10.63,0,0,1-3.49,2.36,12.76,12.76,0,0,1-5,.9q-5.07,0-7.49-2.42A8.66,8.66,0,0,1,733.8,80.75Z"/><path class="cls-12" d="M755.54,134.84q-.18-4.32-.35-7.52t-.32-5.79c-.1-1.73-.17-3.33-.2-4.79s-.06-3-.06-4.49a71.55,71.55,0,0,1,.58-11q.59-3.31,2.54-3.61l7.35-1.09.55-.11h.61a2.62,2.62,0,0,1,2.28,1.15,4.82,4.82,0,0,1,.84,2.65l-1.09,38.21.39-.06L784.39,100a4,4,0,0,1,.75-1.56,5.43,5.43,0,0,1,1.5-1.29,9.78,9.78,0,0,1,2.05-.9,8.08,8.08,0,0,1,2.39-.34,9.5,9.5,0,0,1,5.36,1.35,4.09,4.09,0,0,1,2,3.49,10.14,10.14,0,0,1-.46,3,16,16,0,0,1-1.16,3.17c-1,2-1.61,3.21-1.84,3.75q-2.6,6.23-2.94,7.2c-.23.7-.46,1.41-.69,2.14a16.05,16.05,0,0,0-.49,2.22,15.26,15.26,0,0,0-.2,2.56,10.76,10.76,0,0,0,.34,2.71,6.36,6.36,0,0,0,1.21,2.39,6,6,0,0,0,2.37,1.7,10,10,0,0,0,3.86.63,11.08,11.08,0,0,0,4-.89,33.38,33.38,0,0,0,4.3-2q2.36-1.34,4.84-3v13.54a38.49,38.49,0,0,1-7.87,3.86,23.19,23.19,0,0,1-7.75,1.44,15.11,15.11,0,0,1-5.56-1,12.45,12.45,0,0,1-4.15-2.56,12,12,0,0,1-2.65-3.63,10.21,10.21,0,0,1-1-4.21c-1.12,2.31-2.38,4.67-3.8,7.09a64.65,64.65,0,0,1-4.41,6.57,31.22,31.22,0,0,1-4.51,4.81,6.65,6.65,0,0,1-4.08,1.88,8.15,8.15,0,0,1-5.53-1.71,10.16,10.16,0,0,1-2.93-4.29,22.12,22.12,0,0,1-1.22-5.65c-.19-2-.34-4-.47-5.82Z"/><path class="cls-12" d="M840.25,141.24a51.27,51.27,0,0,1-5.16,4.06,54,54,0,0,1-6.66,4,52.53,52.53,0,0,1-7.28,3,22.78,22.78,0,0,1-7.07,1.21,13.52,13.52,0,0,1-5-.83,8.42,8.42,0,0,1-3.31-2.34,9,9,0,0,1-1.82-3.66,19.55,19.55,0,0,1-.54-4.75,52,52,0,0,1,.8-8.47q1.67-10,2.14-11.25.78-2.47,3.14-10.91,2.19-6.89,2.7-9a4.69,4.69,0,0,1,1.59-2.62A10.29,10.29,0,0,1,816.43,98a14.08,14.08,0,0,1,3.11-1,14.67,14.67,0,0,1,2.92-.32c1.58,0,2.66.29,3.22.89a3.31,3.31,0,0,1,.85,2.39,15.22,15.22,0,0,1-.59,3.58q-.59,2.33-1.35,5.28t-2.24,7.62a58,58,0,0,0-2,7.93q-.54,3.28-1.37,6.53a23.6,23.6,0,0,0-.83,5.89,11.82,11.82,0,0,0,.58,4.12,2.28,2.28,0,0,0,2.36,1.53,9.43,9.43,0,0,0,4.61-1.45,41.53,41.53,0,0,0,5.13-3.48c1.73-1.36,3.42-2.78,5.07-4.24s3.11-2.71,4.38-3.74ZM814.49,80.75a9.74,9.74,0,0,1,2.45-6.19,10.32,10.32,0,0,1,3.45-2.5,12.64,12.64,0,0,1,5.39-1,15.07,15.07,0,0,1,3.81.46,9.46,9.46,0,0,1,3.11,1.43,6.79,6.79,0,0,1,2.1,2.53,8.29,8.29,0,0,1,.78,3.72A11.89,11.89,0,0,1,835,83a9.11,9.11,0,0,1-2,3.32,10.43,10.43,0,0,1-3.49,2.36,12.76,12.76,0,0,1-5,.9q-5.07,0-7.49-2.42A8.69,8.69,0,0,1,814.49,80.75Z"/><path class="cls-12" d="M836.22,141.47q0-3.81.46-8.79t1.15-11q.69-6,1.56-10.75t1.67-8.19a9,9,0,0,1,2.45-4.43,6.72,6.72,0,0,1,4.93-1.79q3.1,0,4.32,1.9a9.41,9.41,0,0,1,1.21,5.07,20.3,20.3,0,0,1-.18,2.34c-.11,1-.26,2.05-.43,3.23s-.35,2.38-.55,3.63-.37,2.67-.54,4.26-.32,2.79-.44,3.57a14.8,14.8,0,0,0-.17,1.59h1.15c.24-.42.6-1.11,1.1-2a35.75,35.75,0,0,0,1.73-4.06,34.68,34.68,0,0,1,2.1-4.7q1.13-2,2.11-3.92c.65-1.24,1.24-2.35,1.78-3.31s.94-1.67,1.21-2.13a10.4,10.4,0,0,1,4.21-4.27,11.79,11.79,0,0,1,5.25-1.15A5.34,5.34,0,0,1,876.88,99a11.49,11.49,0,0,1,1.69,6.69,14.51,14.51,0,0,1-.25,2.13c-.18,1-.4,2.19-.67,3.57s-.56,3.17-.89,5.36-.62,4.15-.89,5.88-.49,3.44-.67,5.13-.26,3.25-.26,4.67a16.37,16.37,0,0,0,.9,5.88c.6,1.53,1.53,2.3,2.79,2.3a5.58,5.58,0,0,0,2-.52,7.29,7.29,0,0,0,2.42-1.21,17.79,17.79,0,0,1,2.66-1.9,28.55,28.55,0,0,0,3.86-2.31q4.61-2.92,11-7.2l0,12.91-2.88,2.19q-.35.28-5.42,3-7.32,3.91-9.17,4.72a52.66,52.66,0,0,1-5.59,2.31,19.58,19.58,0,0,1-6,.92q-3.17,0-5.33-4.58t-2.16-13.4a64.78,64.78,0,0,1,.46-7.46q.46-4,1.15-8.62h-.92l-15.1,30a7.5,7.5,0,0,1-2.59,3.23,6.45,6.45,0,0,1-3.35.86,6.05,6.05,0,0,1-6-3.72,13.08,13.08,0,0,1-1-3.86A36,36,0,0,1,836.22,141.47Z"/><path class="cls-12" d="M898.73,206.33a15.83,15.83,0,0,1-4.58-2,10,10,0,0,1-3.4-3.77,14.63,14.63,0,0,1-1.58-5.65q-.46-6,3.34-12.85c1.46-2.54,2.47-4.3,3-5.3s1.46-2.41,2.71-4.24a48.48,48.48,0,0,1,3.84-4.93q4-4.55,6.65-7.29t6.25-5.9l1.16-6.86q-6.46,6.1-12.57,6.11a13.94,13.94,0,0,1-8.27-2.71,17.29,17.29,0,0,1-5.67-6.75q-3.46-7.2-.18-16.82a103.63,103.63,0,0,1,6-14.84,35.65,35.65,0,0,1,7.9-10.18q7-6.27,13.66-6.28a5.32,5.32,0,0,1,4.38,1.69,6.75,6.75,0,0,1,.52.67,3.45,3.45,0,0,0,.49.61l.49.47a1.54,1.54,0,0,0,.63.43l.75.27a4.42,4.42,0,0,0,1,.23,13.18,13.18,0,0,0,1.34.06l2.53-.06c1.74,0,2.92.52,3.58,1.56a16.08,16.08,0,0,1,.75,1.68q.69,1.8.17,11.86a37.08,37.08,0,0,1-1.47,7.73,51.94,51.94,0,0,0-1.7,10.25q-.4,5.63-1.27,14.65a35.74,35.74,0,0,0,3.58-2.41q6.79-5.12,15.38-19l3.75,12.8a31.86,31.86,0,0,1-5.7,7.37,79.31,79.31,0,0,1-7,6.35c-.34.23-.61.4-.8.51q-5.54,3.57-8,5.25a5.69,5.69,0,0,0-2.14,3.75c-.38,1.8-.8,5.19-1.26,10.15-.19,1.43-.33,2.53-.42,3.31q-.35,2.61-.66,5.16a46.18,46.18,0,0,1-1.16,5.73,47.71,47.71,0,0,1-1.93,5.88,32.06,32.06,0,0,1-2.85,5.36,21.06,21.06,0,0,1-3.95,4.52,17.9,17.9,0,0,1-5.24,3,18.8,18.8,0,0,1-6.69,1.15A21,21,0,0,1,898.73,206.33Zm8.38-28.81a66.6,66.6,0,0,0-6.23,12.93c-1.27,3.65-.61,5.48,2,5.48a8,8,0,0,0,2.45-.35,5.13,5.13,0,0,0,2-1.24,11.38,11.38,0,0,0,1.61-1.93,16.94,16.94,0,0,0,1.47-3q.78-2,1.41-3.84t1.5-5a20.5,20.5,0,0,0,.76-3.67c.17-1.33.37-3,.61-4.93s.39-3.2.45-3.73Q911,171.15,907.11,177.52Zm-3.46-37.38a4.11,4.11,0,0,0,3.63,2.42q3.91,0,6.51-6.28a30,30,0,0,0,2.25-10l4.32-19.19q-6.69,0-11.76,9-5.48,9.57-6,13Q901.52,136.39,903.65,140.14Z"/></g></g></g></svg>